<?xml version="1.0" standalone="no"?>
<!DOCTYPE svg PUBLIC "-//W3C//DTD SVG 20010904//EN"
 "http://www.w3.org/TR/2001/REC-SVG-20010904/DTD/svg10.dtd">
<svg version="1.0" xmlns="http://www.w3.org/2000/svg"
 width="101.000000pt" height="101.000000pt" viewBox="0 0 101.000000 101.000000"
 preserveAspectRatio="xMidYMid meet">
<metadata>
Created by potrace 1.14, written by Peter Selinger 2001-2017
</metadata>
<g transform="translate(0.000000,101.000000) scale(0.100000,-0.100000)"
fill="#000000" stroke="none">
<path d="M137 857 c-3 -8 -19 -14 -36 -15 -17 0 -35 -3 -41 -7 -18 -11 -12
-185 9 -230 24 -51 68 -93 117 -110 l39 -13 5 -99 c7 -116 24 -159 82 -199 34
-24 51 -29 103 -29 51 0 68 5 102 28 22 15 49 43 59 62 10 18 26 36 36 38 11
3 18 14 18 30 0 14 19 54 43 89 42 61 45 63 93 68 l49 5 3 42 c4 54 36 78 122
92 34 6 65 12 67 15 10 9 -39 17 -70 11 -32 -6 -32 -6 -11 12 11 10 31 26 45
35 20 14 21 17 6 17 -10 1 -36 -8 -58 -18 -40 -20 -41 -13 -6 26 l20 22 -23
-4 c-12 -2 -33 -11 -46 -20 -30 -20 -31 -12 -1 16 20 20 20 21 2 14 -11 -4
-31 -9 -45 -10 -14 -1 -25 -3 -25 -4 0 -2 -9 -4 -20 -6 -11 -2 -30 -17 -43
-32 l-23 -28 11 28 c14 39 13 40 -16 20 -15 -9 -33 -31 -41 -48 -13 -29 -14
-29 -10 -3 3 18 0 25 -9 21 -10 -4 -14 13 -16 69 l-3 73 -75 0 c-49 0 -78 4
-83 13 -4 6 -24 12 -43 12 -22 0 -37 6 -40 15 -7 18 -44 20 -45 3 -1 -7 -2
-28 -4 -45 -1 -18 3 -37 10 -43 13 -11 45 -3 45 11 0 5 6 9 14 9 10 0 13 -16
11 -67 -1 -38 -3 -73 -4 -80 0 -8 -24 -13 -63 -15 l-63 -3 -3 -47 -3 -48 -36
5 c-91 12 -136 71 -139 182 -1 76 5 86 38 56 13 -12 22 -13 29 -6 15 15 18 74
6 91 -12 16 -34 15 -40 -1z m669 -165 c-18 -16 -18 -16 -6 6 6 13 14 21 18 18
3 -4 -2 -14 -12 -24z m-334 -314 l3 -93 28 -3 c33 -4 34 -12 5 -40 -63 -58
-158 -47 -204 23 -12 18 -17 53 -19 115 l-3 90 94 0 93 0 3 -92z m212 67 c-4
-8 -11 -12 -16 -9 -6 4 -5 10 3 15 19 12 19 11 13 -6z m-42 -57 c-9 -9 -12 -7
-12 12 0 19 3 21 12 12 9 -9 9 -15 0 -24z"/>
</g>
</svg>
